# xmcd
#
# Track frame offsets:
#	150
#	15645
#	33231
#	49174
#	66849
#	85006
#	102909
#	119990
#	139608
#	158134
#	176543
#	193539
#	210505
#	227048
#	241984
#	257008
#	274874
#	295358
#
# Disc length: 4150 seconds
#
# Revision: 3
# Processed by: cddbd v1.5.2PL0 Copyright (c) Steve Scherf et al.
# Submitted via: audiograbber 1.83.01
#
DISCID=00103412
DTITLE=Various Artist - SFG355
DYEAR=2015
DGENRE=karaoke
TTITLE0=One Direction - Drag me down
TTITLE1=Taylor Swift - Wildest dream
TTITLE2=Martin Solveig and Gta - Intoxicated
TTITLE3=5 seconds of summer - She's kinda hot
TTITLE4=Rita Ora f. Chris Brown - Body on me
TTITLE5=Shaggy f. Mohombi Faydee and Costi - I need your love
TTITLE6=Pia Mia f. Chris Brown and Tyga - Do it again
TTITLE7=Rod Stewart - Love is
TTITLE8=Disclosure f. Sam Smith - Omen
TTITLE9=Sigala - Easy love
TTITLE10=Foxes - Body talk
TTITLE11=Calvin Harris and Disciples - How deep is your love
TTITLE12=Rachel Platten - Fight song
TTITLE13=Tough Love - Pony (jump on it)
TTITLE14=Joe Stone f. Montell Jordan - The party (this is how we do it)
TTITLE15=Selena Gomez f. ASAP Rocky - Good for you
TTITLE16=Lana Del Ray - High by the beach
TTITLE17=Bring me back to the horizon - Throne
EXTD=
EXTT0=
EXTT1=
EXTT2=
EXTT3=
EXTT4=
EXTT5=
EXTT6=
EXTT7=
EXTT8=
EXTT9=
EXTT10=
EXTT11=
EXTT12=
EXTT13=
EXTT14=
EXTT15=
EXTT16=
EXTT17=
PLAYORDER=
